<?xml version="1.0" encoding="utf-8"?>
<!-- Generator: Adobe Illustrator 21.1.0, SVG Export Plug-In . SVG Version: 6.00 Build 0)  -->
<svg version="1.1" id="Layer_1" xmlns="http://www.w3.org/2000/svg" xmlns:xlink="http://www.w3.org/1999/xlink" x="0px" y="0px"
	 viewBox="0 0 100 136.1" style="enable-background:new 0 0 100 136.1;" xml:space="preserve">
<style type="text/css">
	.st0{fill:#FFFFFF;}
	.st1{display:none;}
	.st2{display:inline;fill:#1B1C1D;stroke:#000000;stroke-miterlimit:10;}
	.st3{fill:#1B1C1D;}
</style>
<g id="Layer_2">
	<g>
		<circle class="st0" cx="50" cy="89" r="43"/>
		<path class="st0" d="M50,55c16.4,0,29.8,11.5,29.8,25.7c0,7.1-3.3,13.5-8.7,18.2c2.3,2.7,3.2,5.6,2.1,8c-1.6,3.3-6.8,4.2-12.1,2.1
			v10.5c0,1.9-1.7,3.5-3.7,3.5h-0.1c-1.7,0-3.2-1.1-3.6-2.6c-0.5,1.5-1.9,2.6-3.6,2.6h-0.1c-1.7,0-3.2-1.1-3.6-2.6
			c-0.5,1.5-1.9,2.6-3.6,2.6h-0.1c-2.1,0-3.7-1.6-3.7-3.5V109c-5.3,2.1-10.5,1.3-12.1-2.1c-1.1-2.4-0.2-5.4,2.1-8
			c-5.4-4.7-8.7-11.1-8.7-18.2C20.2,66.5,33.6,55,50,55z"/>
		<path class="st0" d="M45.5,102.1c-0.7,1-0.7,2.5,0.2,3.3l0.3,0.3c0.1,0.1,0.2,0.2,0.3,0.2c0.8,0.6,1.8,0.4,2.5-0.5l1.3-1.8
			l1.2,1.7c0.6,0.8,1.4,1.1,2.2,0.8c0.3-0.1,0.6-0.3,0.8-0.5c0.9-1,1-2.6,0.2-3.6l-1-1.3l-1.7-2.4c-0.4-0.5-0.8-0.8-1.2-0.9h-0.1
			c-0.4-0.1-0.8-0.1-1.1,0c-0.3,0.1-0.7,0.4-0.9,0.7l-2.3,3.1L45.5,102.1z"/>
		<path class="st0" d="M37.5,98.6c1,0,1.9-0.1,2.8-0.4c0.7-0.2,1.4-0.5,2-0.8c3.2-1.7,5.5-5.2,5.5-9.1c0-5.6-4.7-10.3-10.4-10.3
			s-10.3,4.6-10.3,10.2C27.1,94,31.7,98.6,37.5,98.6z"/>
		<path class="st0" d="M57.7,97.3c0.7,0.4,1.3,0.6,2,0.8c0.9,0.3,1.8,0.4,2.8,0.4c5.7,0,10.4-4.6,10.4-10.3
			c0-5.7-4.7-10.3-10.4-10.3s-10.4,4.6-10.4,10.3C52.2,92.2,54.4,95.6,57.7,97.3z"/>
	</g>
</g>
<g id="Layer_1_1_">
	<g class="st1">
		<rect x="-694.6" y="-8" class="st2" width="1293.6" height="1270.1"/>
	</g>
	<g>
		<path class="st3" d="M50,134c24.9,0,45-20.1,45-45S74.9,44,50,44S5,64.1,5,89S25.1,134,50,134z M50,53.4c17.2,0,31.2,12,31.2,26.9
			c0,7.4-3.5,14.1-9.1,19c2.4,2.8,3.4,5.9,2.2,8.4c-1.7,3.5-7.1,4.4-12.7,2.2v11c0,2-1.8,3.7-3.9,3.7h-0.1c-1.8,0-3.3-1.2-3.8-2.7
			c-0.5,1.6-2,2.7-3.8,2.7h-0.1c-1.8,0-3.3-1.2-3.8-2.7c-0.5,1.6-2,2.7-3.8,2.7h-0.1c-2.2,0-3.9-1.7-3.9-3.7v-11
			c-5.5,2.2-11,1.4-12.7-2.2c-1.2-2.5-0.2-5.6,2.2-8.4c-5.6-4.9-9.1-11.6-9.1-19C18.8,65.5,32.8,53.4,50,53.4z"/>
		<path class="st3" d="M45.3,102.7c-0.7,1-0.7,2.6,0.2,3.5l0.3,0.3c0.1,0.1,0.2,0.2,0.3,0.2c0.8,0.6,1.9,0.4,2.6-0.5l1.4-1.9
			l1.3,1.8c0.6,0.8,1.5,1.1,2.3,0.8c0.3-0.1,0.6-0.3,0.8-0.5c0.9-1,1-2.7,0.2-3.8l-1-1.4l-1.8-2.5c-0.4-0.5-0.8-0.8-1.3-0.9h-0.1
			c-0.4-0.1-0.8-0.1-1.2,0c-0.3,0.1-0.7,0.4-0.9,0.7l-2.4,3.2L45.3,102.7z"/>
		<path class="st3" d="M36.9,99c1,0,2-0.1,2.9-0.4c0.7-0.2,1.5-0.5,2.1-0.8c3.4-1.8,5.8-5.4,5.8-9.5c0-5.9-4.9-10.8-10.9-10.8
			S26,82.3,26,88.2C26,94.2,30.9,99,36.9,99z"/>
		<path class="st3" d="M58.1,97.7c0.7,0.4,1.4,0.6,2.1,0.8c0.9,0.3,1.9,0.4,2.9,0.4c6,0,10.9-4.8,10.9-10.8s-4.9-10.8-10.9-10.8
			s-10.9,4.8-10.9,10.8C52.3,92.3,54.6,95.9,58.1,97.7z"/>
	</g>
</g>
</svg>
